<?xml version="1.0" encoding="utf-8"?>
<!-- Generated by IcoMoon.io -->
<!DOCTYPE svg PUBLIC "-//W3C//DTD SVG 1.1//EN" "http://www.w3.org/Graphics/SVG/1.1/DTD/svg11.dtd">
<svg version="1.1" xmlns="http://www.w3.org/2000/svg" xmlns:xlink="http://www.w3.org/1999/xlink" width="24" height="24" viewBox="0 0 24 24">
<g>
</g>
	<path d="M4.5 13.554v10.393c0.245 0.035 0.495 0.054 0.75 0.054h0.75v-10.5h-0.75c-0.255 0-0.505 0.019-0.75 0.054zM18 13.5v10.5h0.75c0.255 0 0.505-0.019 0.75-0.054v-10.393c-0.245-0.035-0.495-0.054-0.75-0.054h-0.75zM24 12c0-6.627-5.373-12-12-12s-12 5.373-12 12c0 1.439 0.254 2.82 0.718 4.099-0.456 0.778-0.718 1.684-0.718 2.651 0 2.094 1.226 3.902 3 4.745v-9.489c-0.472 0.224-0.904 0.517-1.286 0.865-0.14-0.685-0.214-1.394-0.214-2.12 0-5.799 4.701-10.5 10.5-10.5s10.5 4.701 10.5 10.5c0 0.726-0.074 1.436-0.214 2.12-0.382-0.348-0.814-0.641-1.286-0.865v9.489c1.774-0.843 3-2.65 3-4.745 0-0.967-0.262-1.873-0.718-2.651 0.465-1.279 0.718-2.659 0.718-4.099z" fill="#ffffff"></path>
</svg>
